<svg width="132" height="132" viewBox="0 0 132 132" fill="none" xmlns="http://www.w3.org/2000/svg">
<g clip-path="url(#clip0_104_792)">
<path d="M65.9997 90.7497C79.6687 90.7497 90.7496 79.6688 90.7496 65.9998C90.7496 52.3308 79.6687 41.2499 65.9997 41.2499C52.3307 41.2499 41.2498 52.3308 41.2498 65.9998C41.2498 79.6688 52.3307 90.7497 65.9997 90.7497Z" stroke="black" stroke-width="5" stroke-linecap="round" stroke-linejoin="round"/>
<path d="M26.9619 47.215C27.9032 45.2628 28.9898 43.384 30.2127 41.5947L29.9874 28.2132C29.9772 27.599 30.1039 26.9901 30.3582 26.4308C30.6126 25.8716 30.9883 25.376 31.458 24.98C36.2879 20.9052 41.8008 17.7172 47.7415 15.5634C48.3179 15.3558 48.9332 15.2792 49.5429 15.3391C50.1525 15.399 50.7411 15.5939 51.2661 15.9097L62.7607 22.8067L62.7488 22.7996C64.9102 22.6386 67.0805 22.6404 69.2416 22.8047L80.7176 15.9189C81.2445 15.6029 81.8351 15.4082 82.4466 15.3488C83.0581 15.2895 83.6752 15.367 84.253 15.5758C90.1968 17.7213 95.7141 20.9015 100.55 24.9695C101.018 25.3648 101.392 25.8594 101.645 26.4173C101.898 26.9752 102.023 27.5825 102.012 28.195L101.786 41.5981L101.787 41.5842C103.007 43.3755 104.09 45.256 105.029 47.2097L116.73 53.7053C117.267 54.0036 117.731 54.4177 118.088 54.9176C118.445 55.4175 118.687 55.9907 118.795 56.5955C119.908 62.8097 119.913 69.1717 118.811 75.3879C118.704 75.994 118.462 76.5686 118.105 77.0698C117.748 77.571 117.283 77.9862 116.745 78.2854L105.026 84.7911L105.038 84.7844C104.096 86.7366 103.01 88.6153 101.787 90.4047L102.012 103.786C102.022 104.4 101.896 105.009 101.641 105.569C101.387 106.128 101.011 106.623 100.542 107.019C95.7116 111.094 90.1987 114.282 84.258 116.436C83.6816 116.644 83.0663 116.72 82.4566 116.66C81.847 116.6 81.2583 116.405 80.7334 116.09L69.2388 109.193L69.2507 109.2C67.0893 109.361 64.919 109.359 62.7579 109.195L51.2819 116.08C50.755 116.396 50.1644 116.591 49.5529 116.651C48.9414 116.71 48.3243 116.632 47.7465 116.424C41.8027 114.278 36.2854 111.098 31.4497 107.03C30.9818 106.635 30.6078 106.14 30.3549 105.582C30.1019 105.024 29.9764 104.417 29.9874 103.804L30.213 90.4013L30.2128 90.4152C28.9928 88.6239 27.9091 86.7434 26.9709 84.7897L15.2696 78.294C14.7325 77.9958 14.2685 77.5816 13.9114 77.0817C13.5542 76.5818 13.3129 76.0086 13.2048 75.4038C12.092 69.1896 12.0864 62.8276 13.1883 56.6115C13.2958 56.0054 13.5371 55.4308 13.8945 54.9296C14.2519 54.4284 14.7165 54.0131 15.2546 53.714L26.974 47.2083L26.9619 47.215Z" stroke="black" stroke-width="5" stroke-linecap="round" stroke-linejoin="round"/>
<path d="M27.2372 11.12H19.3172V3.44H10.6772V11.12H2.75719V19.28H10.6772V26.96H19.3172V19.28H27.2372V11.12Z" fill="#F33764"/>
</g>
<defs>
<clipPath id="clip0_104_792">
<rect width="132" height="132" fill="white"/>
</clipPath>
</defs>
</svg>
