<svg width="142" height="142" viewBox="0 0 142 142" fill="none" xmlns="http://www.w3.org/2000/svg">
<g clip-path="url(#clip0_105_817)">
<path d="M53.3867 55.9364C52.973 55.9364 52.5685 56.0591 52.2245 56.289C51.8805 56.5188 51.6123 56.8456 51.454 57.2278C51.2956 57.6101 51.2542 58.0307 51.3349 58.4365C51.4157 58.8423 51.6149 59.2151 51.9075 59.5077C52.2 59.8002 52.5728 59.9995 52.9786 60.0802C53.3844 60.1609 53.8051 60.1195 54.1873 59.9612C54.5696 59.8028 54.8963 59.5347 55.1262 59.1907C55.3561 58.8466 55.4787 58.4422 55.4787 58.0284C55.4785 57.4736 55.258 56.9417 54.8658 56.5494C54.4735 56.1571 53.9415 55.9366 53.3867 55.9364Z" fill="black"/>
<path d="M40.8342 22.4648C28.1914 22.4648 17.1953 32.6855 17.1953 45.4761V95.6836C17.1953 108.478 28.1956 118.695 40.8342 118.695C53.4533 118.695 64.473 108.494 64.473 95.6836V45.4761C64.473 32.6816 53.4719 22.4648 40.8342 22.4648ZM60.2893 95.6836C60.2893 106.278 51.0193 114.511 40.8342 114.511C30.2884 114.511 21.379 105.889 21.379 95.6836V72.6724H60.2904L60.2893 95.6836ZM60.2893 68.4884H21.3793V45.4761C21.3793 35.2698 30.2887 26.6486 40.8344 26.6486C51.3801 26.6486 60.2895 35.2704 60.2895 45.4761L60.2893 68.4884Z" fill="black"/>
<path d="M45.7162 31.6687C45.4573 31.577 45.1828 31.5371 44.9084 31.5514C44.6341 31.5657 44.3652 31.634 44.1172 31.7522C43.6164 31.9909 43.2309 32.4189 43.0456 32.9419C42.8602 33.4649 42.8903 34.04 43.129 34.5409C43.3678 35.0417 43.7957 35.4272 44.3187 35.6126C46.3565 36.3364 48.1206 37.6726 49.3692 39.4382C50.6178 41.2039 51.2899 43.3124 51.2933 45.4749V49.6589C51.2933 50.2137 51.5138 50.7459 51.9061 51.1382C52.2984 51.5305 52.8305 51.7509 53.3854 51.7509C53.9402 51.7509 54.4723 51.5305 54.8646 51.1382C55.2569 50.7459 55.4774 50.2137 55.4774 49.6589V45.4749C55.4727 42.448 54.5322 39.4965 52.7848 37.0249C51.0373 34.5533 48.5684 32.6825 45.7162 31.6687Z" fill="black"/>
<path d="M96.4801 63.6759C81.8125 63.6759 68.6573 76.1358 68.6573 91.4987C68.6573 106.503 81.4769 119.322 96.4801 119.322C111.426 119.322 124.303 106.619 124.303 91.4987C124.303 76.4945 111.483 63.6759 96.4801 63.6759ZM96.4801 115.138C83.6669 115.138 72.8413 104.312 72.8413 91.4987C72.8709 85.9733 74.8692 80.6393 78.4775 76.4545L111.524 109.501C107.341 113.112 102.006 115.111 96.4801 115.138ZM114.483 106.542L81.4376 73.4975C85.715 69.892 91.0811 67.8596 96.4801 67.8596C109.293 67.8596 120.119 78.6849 120.119 91.4985C120.092 97.0245 118.094 102.359 114.483 106.542Z" fill="black"/>
</g>
<defs>
<clipPath id="clip0_105_817">
<rect width="142" height="142" fill="white"/>
</clipPath>
</defs>
</svg>
