<svg width="134" height="134" viewBox="0 0 134 134" fill="none" xmlns="http://www.w3.org/2000/svg">
<path d="M81.6562 35.7256H77.4688V40.045H81.6562V35.7256Z" fill="black"/>
<path d="M64.9063 27.2187V37.1033C64.9034 38.2287 65.124 39.3434 65.5553 40.3828C65.9866 41.4223 66.62 42.3657 67.4188 43.1585L67.8145 43.5521C68.2212 43.9581 68.5436 44.4405 68.7631 44.9716C68.9827 45.5027 69.095 46.072 69.0938 46.6466V51.4141C67.8249 52.1435 66.7701 53.1936 66.0352 54.4592C65.3002 55.7249 64.9109 57.1615 64.9063 58.625V112.016C64.9063 113.959 65.6783 115.823 67.0526 117.197C68.4269 118.572 70.2909 119.344 72.2344 119.344H74.3282C76.2717 119.344 78.1356 118.572 79.5099 117.197C80.8842 115.823 81.6563 113.959 81.6563 112.016V44.2305H77.4688V50.25H73.2813V46.6466C73.2836 45.5211 73.0628 44.4062 72.6315 43.3665C72.2002 42.3268 71.5671 41.3829 70.7688 40.5894L70.371 40.1937C69.9645 39.7885 69.6424 39.3067 69.4231 38.7763C69.2039 38.2459 69.092 37.6773 69.0938 37.1033V27.2187C69.0964 24.8062 69.9309 22.4684 71.4566 20.5995C72.9822 18.7306 75.1056 17.4449 77.4688 16.9594V31.536H81.6563V12.5625H79.5625C75.677 12.5675 71.952 14.1132 69.2045 16.8607C66.457 19.6082 64.9113 23.3332 64.9063 27.2187ZM77.4688 112.016C77.4688 112.849 77.1379 113.647 76.5489 114.236C75.9599 114.825 75.1611 115.156 74.3282 115.156H72.2344C71.4015 115.156 70.6026 114.825 70.0136 114.236C69.4247 113.647 69.0938 112.849 69.0938 112.016V64.9062H77.4688V112.016ZM77.4688 54.4375V60.7187H69.0938V58.625C69.0938 57.5144 69.535 56.4493 70.3203 55.664C71.1056 54.8787 72.1707 54.4375 73.2813 54.4375H77.4688ZM129.865 96.1303C129.619 91.8242 127.963 87.7187 125.152 84.4472C124.101 83.2734 122.953 82.1899 121.72 81.2082C120.677 80.4351 119.776 79.4873 119.057 78.4067C117.424 75.6743 116.802 72.4556 117.298 69.3115C117.305 69.1357 117.289 68.9596 117.25 68.7881V57.0296L117.325 56.927L111.153 13.6408C111.073 13.0933 110.799 12.5928 110.381 12.2309C109.962 11.869 109.427 11.6698 108.874 11.6698C108.321 11.6698 107.786 11.869 107.367 12.2309C106.949 12.5928 106.675 13.0933 106.595 13.6408L100.563 55.9576C100.56 56.0807 100.567 56.2039 100.584 56.3261C100.542 56.4624 100.514 56.6027 100.5 56.7448V68.8886C100.5 68.9514 100.531 69.0037 100.536 69.0665C100.522 69.1489 100.514 69.2322 100.513 69.3157C101.008 72.4605 100.386 75.6796 98.7538 78.413C98.0374 79.4901 97.1407 80.4356 96.1032 81.2082C94.8698 82.1897 93.7212 83.2732 92.6694 84.4472C89.8511 87.7174 88.1881 91.8247 87.9375 96.1345C87.6745 100.096 88.458 104.056 90.2092 107.619C92.2102 112.095 95.3197 115.986 99.2438 118.925C99.688 119.258 100.246 119.401 100.796 119.323C101.346 119.244 101.842 118.95 102.175 118.506C102.508 118.062 102.651 117.504 102.573 116.954C102.494 116.404 102.201 115.908 101.756 115.575C98.4062 113.072 95.7488 109.758 94.0345 105.944C92.578 103.015 91.9194 99.7532 92.125 96.4884C92.298 93.0874 93.5847 89.8377 95.787 87.2403C96.6961 86.2244 97.6908 85.2886 98.7601 84.443C100.127 83.4074 101.308 82.148 102.255 80.7182C104.047 77.8719 104.934 74.5486 104.799 71.1875H113.012C112.882 74.55 113.775 77.8728 115.575 80.7161C116.522 82.1465 117.703 83.4065 119.069 84.443C120.139 85.2886 121.134 86.2244 122.043 87.2403C124.246 89.8378 125.533 93.0885 125.705 96.4905C125.904 99.7538 125.241 103.012 123.78 105.937C122.067 109.751 119.41 113.066 116.061 115.569C115.841 115.734 115.655 115.94 115.515 116.177C115.375 116.414 115.283 116.675 115.244 116.948C115.205 117.22 115.221 117.497 115.289 117.763C115.357 118.03 115.477 118.28 115.642 118.5C115.807 118.72 116.014 118.905 116.25 119.045C116.487 119.185 116.749 119.278 117.021 119.316C117.293 119.355 117.57 119.34 117.837 119.272C118.103 119.204 118.353 119.084 118.573 118.919C122.495 115.979 125.602 112.088 127.602 107.612C129.349 104.05 130.13 100.09 129.865 96.1303ZM104.688 58.625H113.063V67H104.688V58.625ZM108.875 27.3276L112.742 54.4375H105.01L108.875 27.3276Z" fill="black"/>
<path d="M110.969 60.7188H106.781V64.9062H110.969V60.7188Z" fill="black"/>
<path d="M46.0165 99.2103C43.7873 99.6659 41.7703 100.843 40.2775 102.56L34.3375 72.9212L45.9369 15.0436C45.9918 14.7737 45.9928 14.4956 45.94 14.2253C45.8872 13.955 45.7816 13.6977 45.6292 13.4683C45.4769 13.2388 45.2807 13.0417 45.052 12.8882C44.8233 12.7347 44.5666 12.6278 44.2965 12.5737C44.0265 12.5195 43.7484 12.5192 43.4782 12.5728C43.208 12.6263 42.951 12.7326 42.722 12.8856C42.493 13.0386 42.2964 13.2353 42.1435 13.4644C41.9906 13.6935 41.8844 13.9506 41.831 14.2208L32.1998 62.264L22.5686 14.2208C22.4581 13.6776 22.1368 13.2003 21.6751 12.8937C21.2133 12.587 20.6488 12.476 20.1053 12.5849C19.5618 12.6938 19.0837 13.0138 18.7758 13.4747C18.4679 13.9356 18.3553 14.4998 18.4627 15.0436L30.0579 72.9212L24.1221 102.548C22.8342 101.093 21.1656 100.026 19.3043 99.4681C17.443 98.91 15.4629 98.8826 13.5868 99.389C11.7108 99.8954 10.0134 100.915 8.68571 102.334C7.35802 103.753 6.45277 105.514 6.07189 107.42C5.54757 110.134 6.11782 112.945 7.65824 115.24C9.19865 117.535 11.5842 119.128 14.2945 119.671C17.0047 120.213 19.8197 119.662 22.1252 118.138C24.4307 116.613 26.0397 114.238 26.6011 111.532L32.1998 83.5804L37.8006 111.532C38.2793 113.902 39.5618 116.033 41.4313 117.566C43.3008 119.099 45.6423 119.939 48.06 119.945C48.7506 119.944 49.4394 119.874 50.116 119.735C51.5005 119.505 52.8245 118.998 54.0092 118.246C55.194 117.493 56.2153 116.51 57.0125 115.355C57.8097 114.2 58.3664 112.896 58.6496 111.521C58.9328 110.146 58.9367 108.729 58.661 107.353C58.3854 105.976 57.8358 104.67 57.045 103.51C56.2541 102.351 55.2382 101.362 54.0576 100.603C52.877 99.8439 51.5558 99.33 50.1726 99.0919C48.7894 98.8537 47.3725 98.8961 46.006 99.2166L46.0165 99.2103ZM19.8257 114.704C19.141 115.165 18.3715 115.484 17.562 115.645C16.7525 115.805 15.9192 115.803 15.1106 115.638C13.8924 115.394 12.7738 114.795 11.8962 113.915C11.0187 113.036 10.4216 111.916 10.1806 110.697C9.93951 109.479 10.0653 108.216 10.542 107.068C11.0186 105.921 11.8248 104.941 12.8586 104.252C13.8923 103.563 15.1072 103.196 16.3495 103.197C17.5919 103.199 18.8059 103.569 19.8381 104.26C20.8703 104.951 21.6743 105.933 22.1484 107.082C22.6224 108.23 22.7454 109.493 22.5015 110.711C22.3419 111.52 22.0231 112.29 21.5638 112.975C21.1044 113.66 20.5137 114.247 19.8257 114.702V114.704ZM49.3057 115.638C48.0876 115.882 46.8242 115.76 45.6755 115.287C44.5267 114.813 43.5442 114.01 42.8522 112.978C42.1602 111.946 41.7898 110.732 41.7878 109.49C41.7858 108.247 42.1524 107.032 42.8411 105.998C43.5299 104.964 44.5098 104.157 45.6571 103.68C46.8043 103.203 48.0672 103.077 49.2862 103.317C50.5051 103.558 51.6253 104.155 52.505 105.032C53.3846 105.91 53.9843 107.029 54.2281 108.247C54.5497 109.879 54.2126 111.572 53.2903 112.956C52.3681 114.341 50.9357 115.304 49.3057 115.636V115.638Z" fill="black"/>
</svg>
